# xmcd
#
# Track frame offsets: 
#        150
#        28578
#        71652
#        84756
#        115967
#        148924
#
# Disc length: 2584 seconds
#
# Revision: 0
# Processed by: cddbd v1.5.2PL0 Copyright (c) Steve Scherf et al.
# Submitted via: ExactAudioCopyFreeDBPlugin 1.0
#
DISCID=4d0a1606
DTITLE=Great Medical Disaster - Die, You Bitch, Cried Architect
DYEAR=2012
DGENRE=Alt. Rock
TTITLE0=Jesus Loved The Nun-chucks
TTITLE1=Loose Lips
TTITLE2=Lambs
TTITLE3=Man United Killed Rod Hull
TTITLE4=The Beatification Of Cardinal Newman
TTITLE5=Jackboot
EXTD=
EXTT0=
EXTT1=
EXTT2=
EXTT3=
EXTT4=
EXTT5=
PLAYORDER=
